<svg width="512" height="512" viewBox="0 0 512 512" fill="none" xmlns="http://www.w3.org/2000/svg">
<g clip-path="url(#clip0_1_7)">
<path d="M256 0.895996C199.551 0.958099 145.431 23.4085 105.513 63.3222C65.5956 103.236 43.1398 157.353 43.072 213.803C43.072 268.629 85.5254 354.432 169.259 468.821C179.227 482.477 192.279 493.587 207.352 501.246C222.424 508.905 239.093 512.897 256 512.897C272.907 512.897 289.576 508.905 304.649 501.246C319.721 493.587 332.773 482.477 342.741 468.821C426.475 354.432 468.928 268.629 468.928 213.803C468.86 157.353 446.404 103.236 406.487 63.3222C366.569 23.4085 312.449 0.958099 256 0.895996ZM256 298.667C239.123 298.667 222.624 293.662 208.591 284.285C194.558 274.909 183.621 261.582 177.162 245.989C170.704 230.396 169.014 213.239 172.306 196.686C175.599 180.133 183.726 164.928 195.66 152.994C207.594 141.059 222.799 132.932 239.352 129.64C255.905 126.347 273.063 128.037 288.656 134.496C304.248 140.954 317.576 151.892 326.952 165.925C336.329 179.958 341.333 196.456 341.333 213.333C341.333 235.965 332.343 257.67 316.34 273.673C300.337 289.676 278.632 298.667 256 298.667Z" fill="white"/>
</g>
<defs>
<clipPath id="clip0_1_7">
<rect width="512" height="512" fill="white"/>
</clipPath>
</defs>
</svg>
