<svg width="512" height="428" viewBox="0 0 512 428" fill="none" xmlns="http://www.w3.org/2000/svg">
<path d="M405.333 0.666626H106.667C47.8507 0.666626 0 48.5173 0 107.333V320.667C0 379.483 47.8507 427.333 106.667 427.333H405.333C464.149 427.333 512 379.483 512 320.667V107.333C512 48.5173 464.149 0.666626 405.333 0.666626ZM85.3333 192.667H213.333C225.109 192.667 234.667 202.224 234.667 214C234.667 225.776 225.109 235.333 213.333 235.333H85.3333C73.5573 235.333 64 225.776 64 214C64 202.224 73.5573 192.667 85.3333 192.667ZM426.667 320.667H85.3333C73.5573 320.667 64 311.109 64 299.333C64 287.557 73.5573 278 85.3333 278H426.667C438.443 278 448 287.557 448 299.333C448 311.109 438.443 320.667 426.667 320.667ZM448 192.667C448 216.197 428.864 235.333 405.333 235.333H320C296.469 235.333 277.333 216.197 277.333 192.667V150C277.333 126.469 296.469 107.333 320 107.333H405.333C428.864 107.333 448 126.469 448 150V192.667ZM405.333 150V192.667H320V150H405.333Z" fill="white"/>
</svg>
