<svg width="512" height="512" viewBox="0 0 512 512" fill="none" xmlns="http://www.w3.org/2000/svg">
<g clip-path="url(#clip0_1_5)">
<path d="M490.667 234.667C485.009 234.667 479.582 232.419 475.582 228.418C471.581 224.417 469.333 218.991 469.333 213.333C469.288 168.084 451.293 124.7 419.296 92.7037C387.3 60.7072 343.916 42.7118 298.667 42.6667C293.009 42.6667 287.582 40.419 283.582 36.4183C279.581 32.4175 277.333 26.9913 277.333 21.3333C277.333 15.6754 279.581 10.2492 283.582 6.24838C287.582 2.2476 293.009 -1.23495e-05 298.667 -1.23495e-05C355.227 0.0621017 409.453 22.5582 449.447 62.5525C489.442 102.547 511.938 156.773 512 213.333C512 218.991 509.752 224.417 505.752 228.418C501.751 232.419 496.325 234.667 490.667 234.667ZM426.667 213.333C426.667 179.386 413.181 146.828 389.176 122.824C365.172 98.819 332.614 85.3333 298.667 85.3333C293.009 85.3333 287.582 87.5809 283.582 91.5817C279.581 95.5825 277.333 101.009 277.333 106.667C277.333 112.325 279.581 117.751 283.582 121.752C287.582 125.752 293.009 128 298.667 128C321.298 128 343.003 136.99 359.006 152.994C375.01 168.997 384 190.702 384 213.333C384 218.991 386.248 224.417 390.248 228.418C394.249 232.419 399.675 234.667 405.333 234.667C410.991 234.667 416.417 232.419 420.418 228.418C424.419 224.417 426.667 218.991 426.667 213.333ZM473.237 472.832L492.651 450.453C505.007 438.057 511.945 421.268 511.945 403.765C511.945 386.263 505.007 369.474 492.651 357.077C491.989 356.416 440.661 316.928 440.661 316.928C428.342 305.202 411.979 298.672 394.972 298.696C377.964 298.72 361.619 305.295 349.333 317.056L308.672 351.317C275.481 337.581 245.331 317.422 219.953 292C194.575 266.578 174.469 236.393 160.789 203.179L194.923 162.645C206.693 150.361 213.276 134.013 213.303 117.001C213.331 99.9878 206.802 83.6187 195.072 71.296C195.072 71.296 155.541 20.032 154.88 19.3707C142.708 7.11995 126.205 0.149791 108.937 -0.0338303C91.6687 -0.217451 75.0214 6.40021 62.592 18.3893L38.0586 39.7227C-106.88 207.872 205.227 517.568 378.923 512C396.463 512.102 413.845 508.688 430.044 501.961C446.243 495.234 460.93 485.329 473.237 472.832Z" fill="white"/>
</g>
<defs>
<clipPath id="clip0_1_5">
<rect width="512" height="512" fill="white"/>
</clipPath>
</defs>
</svg>
